<svg viewBox="0 0 32 32" fill="none" xmlns="http://www.w3.org/2000/svg">
<path d="M13.8335 27.1666C13.8335 27.6611 13.6869 28.1444 13.4122 28.5556C13.1375 28.9667 12.747 29.2871 12.2902 29.4763C11.8334 29.6655 11.3307 29.7151 10.8458 29.6186C10.3608 29.5221 9.91536 29.284 9.56573 28.9344C9.2161 28.5848 8.978 28.1393 8.88153 27.6544C8.78507 27.1694 8.83458 26.6667 9.0238 26.2099C9.21302 25.7531 9.53345 25.3627 9.94457 25.088C10.3557 24.8133 10.839 24.6666 11.3335 24.6666C11.9965 24.6666 12.6324 24.93 13.1013 25.3989C13.5701 25.8677 13.8335 26.5036 13.8335 27.1666ZM24.3335 24.6666C23.839 24.6666 23.3557 24.8133 22.9446 25.088C22.5334 25.3627 22.213 25.7531 22.0238 26.2099C21.8346 26.6667 21.7851 27.1694 21.8815 27.6544C21.978 28.1393 22.2161 28.5848 22.5657 28.9344C22.9154 29.284 23.3608 29.5221 23.8458 29.6186C24.3307 29.7151 24.8334 29.6655 25.2902 29.4763C25.747 29.2871 26.1375 28.9667 26.4122 28.5556C26.6869 28.1444 26.8335 27.6611 26.8335 27.1666C26.8335 26.5036 26.5701 25.8677 26.1013 25.3989C25.6324 24.93 24.9965 24.6666 24.3335 24.6666ZM30.7672 9.60788L27.356 20.6954C27.1382 21.4124 26.695 22.0401 26.0922 22.4853C25.4894 22.9305 24.7591 23.1694 24.0097 23.1666H11.6997C10.9396 23.1642 10.2008 22.9155 9.5939 22.4578C8.98702 22.0001 8.5448 21.358 8.3335 20.6279L4.05975 5.66663H2.8335C2.43567 5.66663 2.05414 5.50859 1.77284 5.22729C1.49153 4.94598 1.3335 4.56445 1.3335 4.16663C1.3335 3.7688 1.49153 3.38727 1.77284 3.10597C2.05414 2.82466 2.43567 2.66663 2.8335 2.66663H4.436C4.97892 2.6683 5.50667 2.84598 5.94007 3.173C6.37347 3.50002 6.68914 3.95875 6.83975 4.48038L7.751 7.66663H29.3335C29.5682 7.66661 29.7997 7.72169 30.0093 7.82744C30.2189 7.93318 30.4007 8.08665 30.5402 8.27548C30.6797 8.46431 30.7729 8.68324 30.8123 8.91466C30.8517 9.14607 30.8363 9.38351 30.7672 9.60788ZM27.3022 10.6666H8.60725L11.2185 19.8041C11.2484 19.9087 11.3115 20.0006 11.3984 20.066C11.4852 20.1314 11.591 20.1667 11.6997 20.1666H24.0097C24.1168 20.1668 24.221 20.1327 24.3072 20.0693C24.3934 20.0058 24.4569 19.9164 24.4885 19.8141L27.3022 10.6666Z" fill="current"/>
</svg>
