<svg viewBox="0 0 25 24" fill="none" xmlns="http://www.w3.org/2000/svg">
<path d="M16.5 4.5V5H17H20.75C20.8163 5 20.8799 5.02634 20.9268 5.07322C20.9737 5.12011 21 5.1837 21 5.25C21 5.3163 20.9737 5.37989 20.9268 5.42678C20.8799 5.47366 20.8163 5.5 20.75 5.5H20H19.5V6V19.5C19.5 19.7652 19.3946 20.0196 19.2071 20.2071C19.0196 20.3946 18.7652 20.5 18.5 20.5H6.5C6.23478 20.5 5.98043 20.3946 5.79289 20.2071C5.60536 20.0196 5.5 19.7652 5.5 19.5V6V5.5H5H4.25C4.1837 5.5 4.12011 5.47366 4.07322 5.42678L3.71967 5.78033L4.07322 5.42678C4.02634 5.37989 4 5.3163 4 5.25C4 5.1837 4.02634 5.12011 4.07322 5.07322C4.12011 5.02634 4.1837 5 4.25 5H8H8.5V4.5V3.75C8.5 3.28587 8.68437 2.84075 9.01256 2.51256C9.34075 2.18437 9.78587 2 10.25 2H14.75C15.2141 2 15.6592 2.18437 15.9874 2.51256C16.3156 2.84075 16.5 3.28587 16.5 3.75V4.5ZM15.5 5H16V4.5V3.75C16 3.41848 15.8683 3.10054 15.6339 2.86612C15.3995 2.6317 15.0815 2.5 14.75 2.5H10.25C9.91848 2.5 9.60054 2.6317 9.36612 2.86612C9.1317 3.10054 9 3.41848 9 3.75V4.5V5H9.5H15.5ZM11.1339 16.6339C11.3683 16.3995 11.5 16.0815 11.5 15.75V9.75C11.5 9.41848 11.3683 9.10054 11.1339 8.86612C10.8995 8.6317 10.5815 8.5 10.25 8.5C9.91848 8.5 9.60054 8.6317 9.36612 8.86612C9.1317 9.10054 9 9.41848 9 9.75V15.75C9 16.0815 9.1317 16.3995 9.36612 16.6339C9.60054 16.8683 9.91848 17 10.25 17C10.5815 17 10.8995 16.8683 11.1339 16.6339ZM15.6339 16.6339C15.8683 16.3995 16 16.0815 16 15.75V9.75C16 9.41848 15.8683 9.10054 15.6339 8.86612C15.3995 8.6317 15.0815 8.5 14.75 8.5C14.4185 8.5 14.1005 8.6317 13.8661 8.86612C13.6317 9.10054 13.5 9.41848 13.5 9.75V15.75C13.5 16.0815 13.6317 16.3995 13.8661 16.6339C14.1005 16.8683 14.4185 17 14.75 17C15.0815 17 15.3995 16.8683 15.6339 16.6339Z" stroke="current"/>
</svg>
