<svg viewBox="0 0 24 24" fill="none" xmlns="http://www.w3.org/2000/svg">
<path d="M10.375 20.375C10.375 20.7458 10.265 21.1084 10.059 21.4167C9.85298 21.725 9.56014 21.9654 9.21753 22.1073C8.87492 22.2492 8.49792 22.2863 8.1342 22.214C7.77049 22.1416 7.4364 21.963 7.17417 21.7008C6.91195 21.4386 6.73337 21.1045 6.66103 20.7408C6.58868 20.3771 6.62581 20.0001 6.76773 19.6575C6.90964 19.3149 7.14996 19.022 7.45831 18.816C7.76665 18.61 8.12916 18.5 8.5 18.5C8.99728 18.5 9.47419 18.6975 9.82582 19.0492C10.1775 19.4008 10.375 19.8777 10.375 20.375ZM18.25 18.5C17.8792 18.5 17.5166 18.61 17.2083 18.816C16.9 19.022 16.6596 19.3149 16.5177 19.6575C16.3758 20.0001 16.3387 20.3771 16.411 20.7408C16.4834 21.1045 16.662 21.4386 16.9242 21.7008C17.1864 21.963 17.5205 22.1416 17.8842 22.214C18.2479 22.2863 18.6249 22.2492 18.9675 22.1073C19.3101 21.9654 19.603 21.725 19.809 21.4167C20.015 21.1084 20.125 20.7458 20.125 20.375C20.125 19.8777 19.9275 19.4008 19.5758 19.0492C19.2242 18.6975 18.7473 18.5 18.25 18.5ZM23.0753 7.20594L20.5169 15.5216C20.3535 16.0593 20.0211 16.5301 19.569 16.864C19.1169 17.1979 18.5692 17.3771 18.0072 17.375H8.77469C8.2046 17.3732 7.65046 17.1866 7.1953 16.8433C6.74015 16.5001 6.40848 16.0186 6.25 15.4709L3.04469 4.25H2.125C1.82663 4.25 1.54048 4.13147 1.3295 3.9205C1.11853 3.70952 1 3.42337 1 3.125C1 2.82663 1.11853 2.54048 1.3295 2.3295C1.54048 2.11853 1.82663 2 2.125 2H3.32687C3.73407 2.00126 4.12988 2.13451 4.45493 2.37978C4.77998 2.62504 5.01674 2.96909 5.12969 3.36031L5.81312 5.75H22C22.1761 5.74999 22.3497 5.7913 22.5069 5.87061C22.664 5.94992 22.8004 6.06501 22.905 6.20664C23.0096 6.34826 23.0795 6.51246 23.1091 6.68602C23.1387 6.85958 23.1271 7.03766 23.0753 7.20594ZM20.4766 8H6.45531L8.41375 14.8531C8.43617 14.9315 8.48354 15.0005 8.54867 15.0495C8.6138 15.0986 8.69315 15.1251 8.77469 15.125H18.0072C18.0875 15.1252 18.1656 15.0996 18.2303 15.052C18.2949 15.0044 18.3426 14.9373 18.3662 14.8606L20.4766 8Z" fill="current"/>
</svg>
