<svg viewBox="0 0 11 11" fill="none" xmlns="http://www.w3.org/2000/svg">
<path d="M9.70301 3.74957L4.51382 8.93876C4.46862 8.98411 4.41492 9.0201 4.35578 9.04465C4.29665 9.06921 4.23325 9.08185 4.16922 9.08185C4.10519 9.08185 4.04179 9.06921 3.98266 9.04465C3.92353 9.0201 3.86982 8.98411 3.82463 8.93876L1.55436 6.66849C1.5091 6.62324 1.47321 6.56951 1.44872 6.51039C1.42423 6.45126 1.41162 6.38789 1.41162 6.3239C1.41162 6.2599 1.42423 6.19653 1.44872 6.1374C1.47321 6.07828 1.5091 6.02455 1.55436 5.9793C1.59961 5.93405 1.65333 5.89815 1.71246 5.87366C1.77158 5.84917 1.83495 5.83657 1.89895 5.83657C1.96295 5.83657 2.02632 5.84917 2.08544 5.87366C2.14457 5.89815 2.19829 5.93405 2.24355 5.9793L4.16963 7.90538L9.01463 3.06119C9.10602 2.9698 9.22997 2.91846 9.35922 2.91846C9.48847 2.91846 9.61242 2.9698 9.70382 3.06119C9.79521 3.15258 9.84655 3.27654 9.84655 3.40579C9.84655 3.53504 9.79521 3.65899 9.70382 3.75038L9.70301 3.74957Z" fill="current"/>
</svg>
