<svg width="16" height="16" viewBox="0 0 16 16" fill="none" xmlns="http://www.w3.org/2000/svg">
<path d="M13.5308 6.53061L8.53084 11.5306C8.46116 11.6005 8.37837 11.656 8.28721 11.6939C8.19604 11.7317 8.0983 11.7512 7.99959 11.7512C7.90088 11.7512 7.80314 11.7317 7.71198 11.6939C7.62081 11.656 7.53802 11.6005 7.46834 11.5306L2.46834 6.53061C2.32745 6.38972 2.24829 6.19862 2.24829 5.99936C2.24829 5.80011 2.32745 5.60901 2.46834 5.46811C2.60924 5.32722 2.80033 5.24806 2.99959 5.24806C3.19885 5.24806 3.38995 5.32722 3.53084 5.46811L8.00022 9.93749L12.4696 5.46749C12.6105 5.32659 12.8016 5.24744 13.0008 5.24744C13.2001 5.24744 13.3912 5.32659 13.5321 5.46749C13.673 5.60838 13.7521 5.79948 13.7521 5.99874C13.7521 6.198 13.673 6.38909 13.5321 6.52999L13.5308 6.53061Z" fill="black"/>
</svg>
