<svg width="18" height="18" viewBox="0 0 18 18" fill="none" xmlns="http://www.w3.org/2000/svg">
<path fill-rule="evenodd" clip-rule="evenodd" d="M17.3201 5.5728V5.57639C17.7702 6.66 17.999 7.81148 17.999 9C17.999 13.9613 13.9603 18 8.99902 18C4.03773 18 -0.000976562 13.9613 -0.000976562 9C-0.000976562 4.03869 4.03773 0 8.99902 0C9.93652 0 10.8628 0.146063 11.7448 0.431485C11.7484 0.431485 11.7484 0.435081 11.7484 0.435081H11.7597C11.7723 0.439387 11.7825 0.447066 11.7931 0.454967L11.803 0.462291L11.8073 0.465243L11.8121 0.468306L11.8146 0.469815L11.8199 0.472634C11.8389 0.483953 11.8615 0.487549 11.8801 0.502464C11.8801 0.502464 11.8801 0.503684 11.8808 0.504705C11.8812 0.505438 11.8821 0.506059 11.8836 0.506059C11.9039 0.526678 11.9184 0.547319 11.9349 0.57069L11.9397 0.577548C11.9419 0.580455 11.9442 0.583208 11.9466 0.585915L11.9519 0.59173C11.9566 0.596902 11.9613 0.602073 11.9654 0.607821C11.9686 0.612216 11.9714 0.616966 11.9736 0.622292C11.9797 0.632835 11.9836 0.644332 11.9865 0.656339L11.988 0.663042L11.9897 0.671231L11.9922 0.686057L11.9957 0.695534L11.9994 0.705322L11.9996 0.706055C12.0059 0.722257 12.0123 0.739014 12.0148 0.757546C12.0148 0.763672 12.014 0.769909 12.0132 0.776367V0.779341C12.0123 0.787753 12.0112 0.796653 12.0112 0.806396C12.0112 0.840332 12.0076 0.870162 11.9999 0.904119V0.907715C11.9956 0.920344 11.9879 0.93184 11.9806 0.94276C11.9748 0.951416 11.9693 0.959695 11.9659 0.967884C11.9546 0.990523 11.9469 1.01314 11.932 1.03165C11.4516 1.61692 11.1894 2.34823 11.1894 3.09806C11.1894 4.89393 12.6515 6.35658 14.4479 6.35658C15.2955 6.35658 16.0977 6.03052 16.7092 5.43806C16.7142 5.43386 16.7193 5.43029 16.7243 5.42707C16.7316 5.42245 16.7389 5.41857 16.7462 5.41471C16.7526 5.41133 16.759 5.40796 16.7653 5.40412C16.7879 5.3892 16.8028 5.37429 16.8255 5.36297H16.8331C16.8594 5.35216 16.8897 5.34806 16.9196 5.34446C16.938 5.34446 16.9571 5.33314 16.9756 5.33674C16.9982 5.33674 17.0168 5.34446 17.0393 5.34806C17.0656 5.35165 17.0918 5.35525 17.1144 5.36297C17.1242 5.3677 17.1325 5.3742 17.1412 5.3813L17.146 5.38525L17.1556 5.3928C17.1855 5.40771 17.2116 5.42263 17.2378 5.44527C17.2378 5.44742 17.2378 5.44829 17.2386 5.44864C17.2392 5.44886 17.2401 5.44886 17.2415 5.44886C17.2564 5.46737 17.2677 5.48999 17.279 5.51263C17.2903 5.53114 17.3089 5.54246 17.3166 5.56507C17.3166 5.56734 17.3166 5.56836 17.3172 5.56943L17.3183 5.57085L17.3201 5.5728ZM2.62393 10.1247C2.62393 10.9538 3.29563 11.6249 4.12411 11.6249C4.95259 11.6249 5.62429 10.9538 5.62429 10.1247C5.62429 9.29572 4.95259 8.62458 4.12411 8.62458C3.2951 8.62458 2.62393 9.29623 2.62393 10.1247ZM6.37358 3.74967C5.75488 3.74967 5.24885 4.25624 5.24885 4.87491C5.24885 5.49361 5.75542 6.00018 6.37358 5.99967C6.99281 5.99967 7.49885 5.49361 7.49885 4.87491C7.49885 4.2557 6.99228 3.74967 6.37358 3.74967ZM8.62411 13.8749C8.62411 14.4941 9.13015 15.0002 9.74885 15.0002C10.3675 15.0002 10.8741 14.4936 10.8741 13.8749C10.8741 13.2562 10.3675 12.7502 9.74885 12.7502C9.13015 12.7502 8.62411 13.2562 8.62411 13.8749ZM8.99902 8.81228C8.99902 9.64131 9.67072 10.3125 10.4992 10.3125C11.3277 10.3125 11.9988 9.64131 11.9994 8.81228C11.9994 7.98327 11.3277 7.31212 10.4992 7.31212C9.67019 7.31212 8.99902 7.98378 8.99902 8.81228Z" fill="current"/>
</svg>
