<svg viewBox="0 0 24 20" fill="none" xmlns="http://www.w3.org/2000/svg">
<path d="M12.0217 3.23981C13.0783 1.83262 14.7733 1.00012 16.7092 1.00012C18.2503 1.00186 19.7277 1.6148 20.8174 2.70448C21.907 3.79416 22.52 5.27158 22.5217 6.81262C22.5217 13.3751 12.7914 18.687 12.377 18.9064C12.2678 18.9651 12.1457 18.9959 12.0217 18.9959C11.8977 18.9959 11.7756 18.9651 11.6664 18.9064C11.252 18.687 1.52173 13.3751 1.52173 6.81262C1.52347 5.27158 2.13641 3.79416 3.22609 2.70448C4.31577 1.6148 5.79319 1.00186 7.33423 1.00012C9.27017 1.00012 10.9652 1.83262 12.0217 3.23981Z" stroke="black" stroke-width="2"/>
</svg>
