<svg width="25" height="24" viewBox="0 0 25 24" fill="none" xmlns="http://www.w3.org/2000/svg">
<g clip-path="url(#clip0_1127_134)">
<path d="M12.0217 5.23969C13.0783 3.8325 14.7733 3 16.7092 3C18.2503 3.00174 19.7277 3.61468 20.8174 4.70436C21.907 5.79404 22.52 7.27146 22.5217 8.8125C22.5217 15.375 12.7914 20.6869 12.377 20.9062C12.2678 20.965 12.1457 20.9958 12.0217 20.9958C11.8977 20.9958 11.7756 20.965 11.6664 20.9062C11.252 20.6869 1.52173 15.375 1.52173 8.8125C1.52347 7.27146 2.13641 5.79404 3.22609 4.70436C4.31577 3.61468 5.79319 3.00174 7.33423 3C9.27017 3 10.9652 3.8325 12.0217 5.23969Z" stroke="black" stroke-width="2"/>
</g>
<defs>
<clipPath id="clip0_1127_134">
<rect width="24" height="24" fill="current" transform="translate(0.0217285)"/>
</clipPath>
</defs>
</svg>
