<svg viewBox="0 0 25 25" fill="none" xmlns="http://www.w3.org/2000/svg">
<path d="M17.1875 3.26001C15.2516 3.26001 13.5566 4.09251 12.5 5.4997C11.4434 4.09251 9.74844 3.26001 7.8125 3.26001C6.27146 3.26175 4.79404 3.87469 3.70436 4.96437C2.61468 6.05405 2.00174 7.53147 2 9.07251C2 15.635 11.7303 20.9469 12.1447 21.1663C12.2539 21.225 12.376 21.2558 12.5 21.2558C12.624 21.2558 12.7461 21.225 12.8553 21.1663C13.2697 20.9469 23 15.635 23 9.07251C22.9983 7.53147 22.3853 6.05405 21.2956 4.96437C20.206 3.87469 18.7285 3.26175 17.1875 3.26001ZM12.5 19.6475C10.7881 18.65 3.5 14.1059 3.5 9.07251C3.50149 7.92922 3.95632 6.83318 4.76475 6.02476C5.57317 5.21633 6.66921 4.7615 7.8125 4.76001C9.63594 4.76001 11.1669 5.73126 11.8062 7.29126C11.8628 7.42882 11.9589 7.54647 12.0824 7.62927C12.2059 7.71208 12.3513 7.75628 12.5 7.75628C12.6487 7.75628 12.7941 7.71208 12.9176 7.62927C13.0411 7.54647 13.1372 7.42882 13.1937 7.29126C13.8331 5.72845 15.3641 4.76001 17.1875 4.76001C18.3308 4.7615 19.4268 5.21633 20.2353 6.02476C21.0437 6.83318 21.4985 7.92922 21.5 9.07251C21.5 14.0984 14.21 18.6491 12.5 19.6475Z" fill="current"/>
<path d="M12.5 6.76001L10 4.76001H6L3.5 6.76001L3 10.76L6 15.76L11.5 19.76H14L18.5 16.26L22.5 10.26L21 5.76001L17 3.76001L12.5 6.76001Z" fill="current" stroke="current"/>
</svg>
