<svg viewBox="0 0 77 76" fill="none" xmlns="http://www.w3.org/2000/svg">
<path fill-rule="evenodd" clip-rule="evenodd" d="M61.6629 22.425C61.8896 22.3494 62.192 22.5006 62.4944 22.9163C62.4944 22.9163 62.4944 22.9163 76.1763 36.2203C76.97 37.014 76.97 38.2234 76.1763 38.8281C76.1763 38.8281 76.1763 38.8281 62.4944 52.3588C62.192 52.7368 61.8896 52.8502 61.6629 52.7368C61.4361 52.6234 61.2849 52.2454 61.2849 51.7541V23.2943C61.2849 22.8029 61.4361 22.5006 61.6629 22.425Z" fill="#ED1C24"/>
<path fill-rule="evenodd" clip-rule="evenodd" d="M38.2677 0.239258H39.2503L40.1574 0.617211C40.1574 0.617211 40.1574 0.617211 54.2551 14.5637C54.8598 15.3574 54.633 15.9243 53.6503 15.9243C53.6503 15.9243 53.6503 15.9243 47.7921 15.9243C46.8094 15.9243 45.9779 16.7558 45.9779 17.7385C45.9779 17.7385 45.9779 17.7385 45.9779 28.0944C45.9779 29.0771 45.1842 29.8708 43.9747 29.8708C43.9747 29.8708 43.9747 29.8708 33.7322 29.8708C32.7117 29.8708 31.918 29.0771 31.918 28.0944C31.918 28.0944 31.918 28.0944 31.918 17.7385C31.918 16.7558 31.1243 15.9243 30.1039 15.9243H23.8677C22.8472 15.9243 22.6582 15.3574 23.2629 14.5637C23.2629 14.5637 23.2629 14.5637 37.3606 0.617211L38.2677 0.239258Z" fill="#ED1C24"/>
<path fill-rule="evenodd" clip-rule="evenodd" d="M16.233 22.1228C16.4597 22.2739 16.6109 22.6141 16.6109 23.1054V52.1322C16.6109 52.6613 16.4597 52.9637 16.233 53.0393C15.9684 53.1527 15.6282 53.0393 15.2125 52.7369C15.2125 52.7369 15.2125 52.7369 1.34161 38.8283C0.547913 38.2235 0.547913 37.0141 1.34161 36.2204C1.34161 36.2204 1.34161 36.2204 15.2125 22.5007C15.6282 22.1228 15.9684 22.0094 16.233 22.1228Z" fill="#ED1C24"/>
<path fill-rule="evenodd" clip-rule="evenodd" d="M33.7321 44.9888C33.7321 44.9888 33.7321 44.9888 43.9746 44.9888C45.1841 44.9888 46.0156 45.7825 46.0156 46.8029C46.0156 46.8029 46.0156 46.8029 46.0156 57.7258C46.0156 58.9352 46.8093 59.7289 47.792 59.7289H53.2345C54.255 59.7289 54.6329 60.2959 53.8392 60.9006C53.8392 60.9006 53.8392 60.9006 40.1573 74.6203C39.7416 75.036 39.2502 75.225 38.7589 75.225C38.2676 75.225 37.7384 75.036 37.3605 74.6203C37.3605 74.6203 37.3605 74.6203 23.6786 60.9006C22.8471 60.2959 23.2628 59.7289 24.2455 59.7289C24.2455 59.7289 24.2455 59.7289 30.1038 59.7289C31.1242 59.7289 31.9179 58.9352 31.9179 57.7258C31.9179 57.7258 31.9179 57.7258 31.9179 46.8029C31.9179 45.7825 32.7116 44.9888 33.7321 44.9888Z" fill="#ED1C24"/>
</svg>
