<svg width="17" height="17" viewBox="0 0 17 17" fill="none" xmlns="http://www.w3.org/2000/svg">
<path d="M4.7915 8.5L4.7915 3.83333" stroke="black" stroke-width="1.33333" stroke-linecap="round"/>
<path d="M8.7915 13.1667L8.7915 8.50008" stroke="black" stroke-width="1.33333" stroke-linecap="round"/>
<path fill-rule="evenodd" clip-rule="evenodd" d="M8.7915 6.50008H7.45817C7.08998 6.50008 6.7915 6.2016 6.7915 5.83341C6.7915 5.46522 7.08998 5.16675 7.45817 5.16675H8.12484L8.12484 3.83341C8.12484 3.46523 8.42331 3.16675 8.7915 3.16675C9.15969 3.16675 9.45817 3.46522 9.45817 3.83341L9.45817 5.16675H10.1248C10.493 5.16675 10.7915 5.46522 10.7915 5.83341C10.7915 6.2016 10.493 6.50008 10.1248 6.50008H8.7915Z" fill="black"/>
<path fill-rule="evenodd" clip-rule="evenodd" d="M3.45817 10.5C3.08998 10.5 2.7915 10.7985 2.7915 11.1667C2.7915 11.5349 3.08998 11.8333 3.45817 11.8333H4.12484L4.12484 13.1667C4.12484 13.5349 4.42331 13.8333 4.7915 13.8333C5.15969 13.8333 5.45817 13.5349 5.45817 13.1667L5.45817 11.8333H6.12484C6.49303 11.8333 6.7915 11.5349 6.7915 11.1667C6.7915 10.7985 6.49303 10.5 6.12484 10.5H4.7915H3.45817Z" fill="black"/>
<path fill-rule="evenodd" clip-rule="evenodd" d="M11.4582 11.1667C11.09 11.1667 10.7915 11.4652 10.7915 11.8334C10.7915 12.2016 11.09 12.5001 11.4582 12.5001H12.1248L12.1248 13.1667C12.1248 13.5349 12.4233 13.8334 12.7915 13.8334C13.1597 13.8334 13.4582 13.5349 13.4582 13.1667V12.5001H14.1248C14.493 12.5001 14.7915 12.2016 14.7915 11.8334C14.7915 11.4652 14.493 11.1667 14.1248 11.1667H12.7915H11.4582Z" fill="black"/>
<path d="M12.7915 9.16675L12.7915 3.83341" stroke="black" stroke-width="1.33333" stroke-linecap="round"/>
</svg>
