<?xml version="1.0" standalone="no"?>
<!DOCTYPE svg PUBLIC "-//W3C//DTD SVG 20010904//EN"
 "http://www.w3.org/TR/2001/REC-SVG-20010904/DTD/svg10.dtd">
<svg version="1.0" xmlns="http://www.w3.org/2000/svg"
 width="608.000000pt" height="608.000000pt" viewBox="0 0 608.000000 608.000000"
 preserveAspectRatio="xMidYMid meet">
<metadata>
Created by potrace 1.14, written by Peter Selinger 2001-2017
</metadata>
<g transform="translate(0.000000,608.000000) scale(0.100000,-0.100000)"
fill="#000000" stroke="none">
<path d="M2802 6068 c-7 -7 -12 -27 -12 -46 l0 -34 95 4 c52 3 97 3 99 0 2 -2
-5 -34 -16 -70 -11 -37 -28 -98 -38 -137 -11 -38 -27 -75 -37 -82 -9 -7 -38
-13 -64 -13 -53 0 -77 -16 -74 -51 l2 -24 234 0 c129 0 240 -4 248 -9 19 -12
29 10 22 47 -7 34 -3 33 -104 38 -43 2 -76 18 -78 37 -2 21 -10 48 -38 138
-17 55 -31 107 -31 115 0 14 16 15 110 11 l110 -4 0 40 c0 27 -5 42 -16 46
-31 12 -399 7 -412 -6z"/>
<path d="M2320 6004 c-159 -41 -270 -77 -271 -88 -3 -25 3 -62 11 -69 4 -5 55
5 111 23 156 47 161 49 199 56 19 3 42 7 50 9 8 2 20 4 25 4 30 3 37 18 25 55
-14 43 -19 44 -150 10z"/>
<path d="M3546 5988 c-7 -18 -11 -36 -7 -40 3 -4 53 -18 111 -32 58 -13 149
-39 203 -56 55 -17 101 -29 104 -26 3 3 6 22 7 42 1 36 0 38 -56 60 -32 12
-58 21 -58 18 0 -2 -12 1 -27 7 -44 17 -215 59 -240 59 -16 0 -27 -9 -37 -32z"/>
<path d="M1684 5766 c-64 -30 -238 -131 -282 -164 -27 -21 -32 -30 -27 -51 13
-54 25 -54 108 -1 50 32 79 45 81 37 9 -28 32 -130 41 -179 3 -15 9 -37 13
-50 16 -45 8 -66 -40 -103 -27 -20 -48 -41 -48 -46 0 -9 17 -47 25 -57 2 -2
31 17 66 41 81 56 214 134 302 176 37 18 67 34 67 36 0 2 -5 16 -12 30 -15 32
-32 32 -104 -5 -32 -16 -62 -30 -66 -30 -4 0 -45 36 -90 79 -46 44 -96 89
-112 102 -27 21 -28 23 -10 36 11 8 54 33 97 55 42 23 77 46 77 50 0 9 -29 68
-33 68 -1 0 -25 -11 -53 -24z"/>
<path d="M4266 5744 c-13 -14 -23 -31 -20 -38 3 -7 36 -28 75 -47 38 -19 69
-39 69 -45 0 -6 -46 -54 -101 -107 -98 -93 -129 -111 -155 -88 -5 4 -24 13
-41 19 -29 10 -34 8 -48 -11 -8 -12 -15 -26 -15 -32 0 -5 37 -28 82 -50 86
-42 277 -162 316 -198 l24 -22 19 24 c10 13 19 29 19 37 0 7 -31 35 -69 61
-80 55 -76 36 -36 209 35 148 33 144 53 137 9 -4 19 -9 22 -13 3 -3 30 -21 60
-40 30 -19 61 -40 68 -47 19 -18 29 -16 46 9 21 30 20 43 -6 68 -37 34 -266
172 -320 193 -10 3 -26 -3 -42 -19z"/>
<path d="M2410 5626 c-293 -76 -311 -85 -289 -143 l8 -22 88 30 c84 28 287 80
365 93 36 6 37 8 27 34 -20 51 -29 52 -199 8z"/>
<path d="M3430 5650 c-6 -4 -13 -21 -16 -37 -5 -30 -4 -31 53 -41 77 -15 90
-18 143 -33 59 -16 62 -17 85 -23 11 -2 56 -18 101 -34 44 -17 86 -27 93 -23
6 4 13 20 14 36 2 27 -2 31 -68 55 -152 56 -383 113 -405 100z"/>
<path d="M1058 5333 c-95 -85 -248 -246 -248 -261 0 -5 10 -21 21 -36 l21 -27
158 158 158 157 -26 23 c-15 13 -30 23 -34 23 -5 0 -27 -17 -50 -37z"/>
<path d="M4883 5316 l-28 -25 102 -103 c57 -57 127 -130 156 -162 l54 -59 22
29 c11 16 21 34 20 39 -2 22 -242 274 -283 297 -10 5 -25 0 -43 -16z"/>
<path d="M2957 5264 c-1 -1 -49 -5 -107 -8 -364 -19 -691 -124 -980 -314 -58
-38 -115 -78 -127 -88 -11 -10 -40 -35 -64 -54 -135 -110 -326 -328 -430 -490
-83 -129 -101 -162 -153 -270 -186 -393 -241 -795 -170 -1242 2 -16 6 -43 9
-60 3 -18 24 -107 47 -197 l41 -164 -20 -60 c-48 -145 4 -324 132 -454 58 -58
64 -68 69 -116 7 -72 8 -76 38 -137 35 -71 99 -133 179 -173 57 -29 63 -35 66
-67 15 -155 125 -324 255 -391 128 -68 225 -75 287 -23 l29 24 38 -35 c93 -83
180 -107 250 -70 28 15 30 14 56 -14 15 -17 46 -40 70 -53 37 -20 57 -23 153
-23 117 1 150 10 164 48 5 12 5 32 0 45 -7 19 -4 25 16 34 24 11 38 35 44 77
1 6 188 8 236 2 6 0 11 -13 12 -28 0 -14 7 -30 15 -34 42 -24 50 -36 40 -55
-5 -10 -6 -28 -2 -40 14 -35 65 -49 185 -49 121 0 155 11 224 74 32 28 35 29
61 16 68 -35 137 -21 234 49 36 25 70 46 77 46 7 0 23 -10 37 -22 19 -19 35
-23 85 -23 79 0 114 9 191 45 146 68 259 223 280 385 4 27 9 51 11 54 3 2 29
14 59 26 65 26 98 52 155 122 58 71 81 123 82 185 1 52 3 54 73 124 110 109
158 228 151 378 -4 70 -19 106 -60 138 -26 20 -25 31 4 123 26 81 24 72 50
196 11 53 24 130 28 170 10 94 10 447 0 519 -4 30 -10 70 -12 88 -4 31 -17
103 -29 161 -12 54 -60 210 -84 271 -104 261 -285 532 -501 750 -64 63 -129
127 -146 140 -237 197 -477 322 -760 395 -160 41 -210 50 -365 60 -104 8 -219
12 -223 9z m-56 -188 c0 -1 3 -49 6 -108 5 -122 16 -105 -111 -172 -38 -20
-71 -34 -74 -31 -7 6 -9 18 -17 95 -3 30 -8 69 -11 85 -15 103 -15 103 14 109
15 3 56 8 92 12 36 3 66 7 68 8 2 2 31 4 33 2z m289 -11 c14 -2 35 -4 48 -4
20 -1 23 -5 19 -30 -7 -43 -12 -47 -64 -60 -27 -7 -72 -21 -101 -32 -29 -10
-55 -19 -58 -19 -7 0 2 135 9 147 6 10 68 9 147 -2z m255 -44 c3 -6 -6 -8 -22
-5 -37 7 -42 14 -10 14 14 0 28 -4 32 -9z m-890 -21 c3 -11 8 -32 11 -46 3
-15 11 -54 19 -88 l15 -61 -38 -35 c-20 -19 -50 -61 -67 -94 -34 -68 -50 -78
-59 -39 -4 15 -25 84 -46 153 -58 182 -61 168 40 200 104 34 117 35 125 10z
m966 -32 c46 -26 49 -40 12 -66 -27 -18 -141 -62 -163 -62 -22 0 -202 -72
-317 -126 -65 -31 -142 -67 -172 -80 -30 -13 -52 -26 -49 -29 7 -8 113 31 208
76 110 53 231 100 290 114 8 2 51 15 94 29 43 14 84 26 91 26 6 0 30 18 52 40
27 28 45 39 56 34 10 -3 17 -12 17 -18 0 -15 -39 -50 -80 -71 -30 -15 -40 -19
-97 -29 -40 -8 -267 -88 -308 -109 -22 -11 -41 -19 -42 -19 -6 3 -268 -110
-412 -176 -132 -61 -183 -103 -64 -53 37 16 109 43 158 61 89 31 215 88 225
100 11 13 108 53 200 82 106 34 125 40 125 38 0 -8 144 53 223 96 58 30 111
53 118 50 47 -18 -35 -71 -195 -126 -52 -17 -102 -33 -110 -36 -96 -22 -237
-77 -526 -203 -22 -10 -56 -24 -75 -32 -56 -22 -127 -60 -100 -53 100 23 296
95 405 148 209 102 312 140 400 149 62 7 114 28 188 78 32 22 63 37 69 33 7
-5 5 -11 -6 -20 -16 -11 -16 -13 2 -18 11 -4 27 -17 35 -30 15 -22 14 -23 -21
-39 -20 -9 -48 -27 -62 -39 -41 -38 -150 -105 -225 -138 -111 -50 -128 -60
-158 -94 -23 -25 -28 -27 -26 -11 5 35 -10 72 -32 78 -27 7 -37 -22 -38 -121
-1 -48 -17 -53 -37 -13 -21 40 -30 45 -53 22 -16 -16 -19 -28 -14 -51 8 -41
-19 -99 -59 -127 -27 -19 -41 -21 -99 -18 -39 3 -70 1 -74 -5 -3 -6 0 -10 7
-11 7 0 22 -3 33 -5 48 -12 132 -7 167 10 20 10 67 48 105 85 37 37 88 81 113
99 25 17 62 48 82 70 21 22 56 44 80 52 53 17 85 36 120 72 40 40 79 63 108
63 14 1 25 7 25 14 0 41 93 50 167 14 23 -11 57 -24 73 -29 26 -8 30 -14 29
-42 -1 -40 12 -42 19 -3 l6 29 60 -32 c34 -17 59 -35 58 -41 -2 -5 -39 -27
-81 -48 -102 -49 -170 -118 -219 -219 -20 -43 -37 -83 -37 -89 0 -6 14 -1 30
11 44 32 102 21 124 -23 8 -18 16 -28 16 -23 0 5 6 4 13 -2 7 -6 34 -13 61
-16 39 -5 53 -2 66 11 10 10 27 25 39 33 11 8 21 19 21 26 0 12 45 36 53 28 2
-3 2 -23 0 -45 -7 -53 1 -80 33 -114 l27 -29 -29 -9 c-41 -12 -70 -26 -139
-68 -228 -136 -382 -169 -506 -110 -40 20 -42 20 -24 2 31 -29 140 -60 204
-56 55 3 174 41 235 74 17 10 56 30 86 46 30 16 66 37 79 47 36 27 94 40 125
28 38 -14 32 -27 -11 -25 -53 2 -80 -9 -232 -98 -74 -42 -153 -84 -175 -91
-93 -32 -265 1 -336 63 -20 19 -22 24 -10 31 13 9 13 10 0 11 -8 1 -20 1 -27
0 -12 -2 -72 68 -92 107 -20 39 -2 40 30 2 18 -22 27 -28 23 -15 -10 28 -34
55 -67 72 -24 12 -26 17 -16 29 22 27 69 46 98 39 15 -3 48 -25 74 -50 56 -51
102 -69 167 -63 82 8 198 102 182 148 -13 37 -56 40 -92 5 -25 -24 -28 -24
-56 -11 -16 8 -43 17 -61 21 -26 5 -32 3 -38 -14 -9 -31 -31 -26 -49 11 -15
29 -15 33 -1 40 18 11 49 67 41 76 -8 7 -44 -26 -63 -59 -23 -39 -56 -52 -104
-39 -35 10 -44 19 -40 43 0 4 -3 7 -9 7 -5 0 -10 -4 -10 -8 0 -5 -15 -26 -34
-48 -33 -38 -105 -84 -156 -99 -20 -6 -16 2 25 42 28 27 63 69 79 93 17 25 39
55 50 68 23 26 11 30 -16 5 -20 -18 -48 -26 -48 -14 0 9 32 54 44 63 6 4 8 10
5 13 -4 3 -37 -29 -75 -72 -88 -99 -112 -121 -150 -138 -62 -28 -172 -19 -258
20 -29 13 -61 24 -72 23 -37 -1 -170 11 -190 18 -63 23 -121 104 -129 183 -5
44 18 131 48 180 32 51 45 83 41 104 -1 9 2 17 7 17 5 0 9 -11 9 -25 0 -26 14
-32 40 -15 11 7 12 10 2 10 -22 0 -8 23 17 27 32 5 81 31 124 69 37 31 57 40
217 99 41 15 82 33 90 40 21 16 68 34 110 40 19 3 69 14 110 24 104 26 154 26
201 -1z m409 -146 c0 -4 -11 -25 -23 -47 -20 -36 -27 -40 -57 -38 -36 2 -60
24 -60 54 0 9 -15 39 -33 65 -52 76 -39 80 74 24 54 -28 99 -54 99 -58z
m-1640 -92 c38 -91 69 -173 70 -182 0 -17 -36 -58 -52 -58 -4 0 -8 6 -8 14 0
8 -8 28 -17 45 -18 30 -51 51 -143 89 -39 17 -49 28 -81 89 -20 39 -34 75 -30
81 9 14 164 92 179 89 8 -1 45 -76 82 -167z m1853 -47 c42 -32 77 -60 77 -63
0 -3 -10 -17 -23 -32 l-22 -27 -35 19 c-19 10 -61 30 -93 46 -49 23 -56 30
-51 48 11 33 38 65 55 66 9 0 51 -26 92 -57z m-2195 -12 l23 -41 -93 -44 -93
-44 -22 20 c-12 11 -19 26 -16 34 9 25 157 133 168 124 6 -5 21 -27 33 -49z
m618 10 c-3 -30 -20 -82 -46 -135 -30 -62 -42 -99 -42 -131 0 -25 -4 -43 -9
-39 -15 9 -10 -9 11 -41 34 -51 20 -76 -19 -34 l-20 21 6 -21 c3 -11 9 -21 14
-21 5 0 9 -4 9 -9 0 -16 43 -80 87 -129 23 -26 40 -48 38 -50 -6 -7 -103 49
-122 71 -12 12 -32 39 -46 60 l-25 37 -7 -30 c-6 -27 -10 -30 -48 -30 -39 0
-77 21 -77 43 0 13 -40 57 -52 57 -14 0 -9 -16 17 -54 19 -28 23 -41 15 -60
-11 -31 -29 -41 -36 -22 -3 8 -12 17 -19 20 -17 6 -77 -13 -87 -28 -4 -7 -18
0 -36 18 -40 37 -76 33 -80 -9 -5 -56 99 -145 170 -145 54 0 85 15 132 64 50
52 85 63 126 39 41 -24 44 -40 11 -59 -26 -15 -61 -61 -61 -80 0 -4 16 10 35
32 45 51 45 27 -1 -42 -41 -62 -149 -164 -174 -164 -9 0 -20 -3 -24 -7 -7 -7
-21 -9 -91 -16 -74 -8 -159 24 -226 83 -39 34 -164 102 -210 113 -38 10 -46
16 -37 25 21 21 41 14 143 -49 121 -74 220 -124 260 -133 68 -14 80 -15 119
-6 49 11 120 39 114 46 -3 2 -22 -3 -43 -12 -92 -38 -237 5 -419 126 -41 27
-80 50 -85 50 -4 0 -14 7 -21 15 -10 12 -7 21 17 48 28 32 28 36 27 136 0 79
3 106 14 118 13 13 17 12 35 -6 18 -18 22 -18 43 -4 22 14 26 13 53 -9 41 -32
44 -45 17 -63 -17 -11 -30 -13 -47 -6 -37 13 -56 -12 -29 -39 29 -29 44 -25
115 24 35 24 66 42 69 39 2 -3 1 -16 -4 -29 -8 -20 -6 -24 10 -24 11 0 28 -9
37 -20 25 -29 48 -27 29 3 -8 12 -27 53 -42 92 -29 72 -105 161 -169 197 -52
29 -44 49 34 87 86 41 103 38 156 -30 59 -76 76 -85 123 -66 24 9 44 12 52 7
17 -11 6 -25 -21 -26 -10 -1 -29 -2 -41 -3 -36 -2 0 -21 40 -21 41 0 92 -26
92 -46 0 -9 -13 -21 -30 -27 -47 -18 -48 -39 0 -22 32 11 40 11 50 0 9 -10 6
-15 -9 -20 -27 -8 -44 -40 -36 -65 9 -29 21 -24 35 13 11 30 12 31 20 11 8
-21 33 -37 43 -28 3 3 -11 39 -30 81 l-36 74 80 77 c62 60 82 87 92 122 15 51
48 110 62 110 5 0 7 -22 5 -49z m-482 -55 c19 -8 42 -28 52 -44 9 -17 26 -33
36 -35 30 -8 22 -37 -9 -37 -35 0 -48 9 -57 36 -3 11 -21 37 -40 57 -37 40
-33 44 18 23z m2285 -148 c84 -91 91 -99 91 -113 0 -7 -4 -15 -9 -17 -5 -1
-55 -46 -111 -98 -57 -52 -105 -94 -109 -92 -13 5 -7 161 10 235 16 77 46 127
75 127 7 0 31 -19 53 -42z m-2696 -3 c30 -42 67 -168 63 -222 -1 -26 1 -58 5
-69 5 -13 3 -28 -4 -38 -10 -13 -28 0 -125 92 l-113 107 27 30 c14 17 44 51
67 78 22 26 46 47 51 47 6 0 19 -12 29 -25z m107 -19 c0 -8 -8 -23 -17 -35
l-18 -22 -2 28 c-1 26 10 42 30 43 4 0 7 -6 7 -14z m2427 -14 c7 -8 10 -29 8
-46 -3 -17 -7 -52 -9 -79 -4 -42 -10 -53 -58 -97 -29 -27 -59 -50 -65 -50 -7
0 -13 -4 -13 -9 0 -18 -85 10 -107 35 -13 14 -36 30 -52 35 -29 10 -46 33 -36
49 3 4 35 -12 72 -36 37 -24 76 -44 88 -44 26 1 55 23 55 43 0 13 -10 16 -44
15 -28 0 -51 5 -61 15 -14 14 -12 19 17 46 37 35 45 37 67 17 14 -13 22 -12
64 7 51 24 58 41 28 78 -10 13 -16 30 -14 37 6 16 43 6 60 -16z m401 -272 c28
-46 52 -86 52 -90 0 -3 -17 -16 -37 -28 -21 -12 -78 -48 -128 -81 -49 -33 -94
-57 -99 -54 -4 3 -21 34 -37 69 -16 35 -33 64 -38 64 -5 0 -11 7 -15 15 -4 10
30 42 112 104 64 49 122 89 127 87 6 -1 34 -40 63 -86z m-3041 -37 l91 -70
-34 -32 c-23 -22 -34 -42 -34 -60 0 -15 -9 -36 -20 -46 -20 -18 -22 -18 -53 0
-96 56 -197 127 -197 137 0 14 90 160 104 170 6 4 20 -1 31 -11 11 -10 61 -50
112 -88z m1268 34 c44 -11 98 -28 120 -37 59 -24 132 -25 188 -1 52 23 63 20
17 -4 -16 -9 -30 -21 -30 -28 0 -7 3 -8 8 -2 4 6 16 12 27 13 11 2 26 9 33 14
19 16 14 0 -6 -19 -28 -27 -43 -30 -106 -19 -36 6 -114 -10 -102 -21 2 -3 26
-7 53 -10 26 -2 59 -10 73 -16 27 -13 39 -44 17 -44 -31 0 -73 -25 -94 -56
-31 -46 -29 -70 3 -29 96 122 272 109 376 -28 30 -40 46 -90 29 -90 -6 0 -11
5 -11 12 0 6 -3 8 -6 5 -4 -4 5 -24 20 -45 41 -60 33 -132 -15 -132 -10 0 -34
9 -53 21 -24 14 -52 20 -88 20 -51 0 -67 -3 -115 -17 -17 -4 -23 -2 -23 8 0
18 41 82 79 121 23 26 31 28 76 23 50 -5 50 -5 27 14 -44 36 -106 0 -170 -100
-51 -79 -84 -105 -132 -102 -4 0 -6 -79 -2 -102 1 -5 12 4 24 20 29 38 31 39
119 74 106 41 152 50 181 36 31 -15 30 -34 -4 -74 -29 -34 -35 -52 -18 -52 6
0 10 -8 10 -17 0 -12 14 -3 48 30 37 37 55 47 78 46 16 -1 37 2 46 5 13 6 22
-2 37 -32 22 -43 18 -53 -28 -67 -28 -8 -29 -7 42 -60 15 -11 27 -24 27 -28 0
-5 14 -43 31 -85 34 -87 39 -130 16 -146 -8 -7 -23 -35 -32 -64 -18 -54 -28
-62 -88 -64 -27 -1 -41 5 -56 23 -10 13 -23 21 -27 17 -4 -4 -1 -14 6 -23 7
-8 27 -61 44 -117 18 -56 39 -106 49 -112 28 -18 83 20 118 80 34 61 81 104
112 105 12 0 60 2 107 4 84 3 85 3 122 -31 48 -43 80 -52 194 -53 85 -1 106
-14 107 -64 1 -46 23 -49 41 -5 9 21 11 41 5 62 -5 16 -7 31 -5 33 6 6 56 -20
56 -29 0 -4 4 -8 10 -8 23 0 -5 31 -47 51 -24 12 -47 28 -50 35 -11 29 -91 28
-208 -2 -45 -12 -72 -10 -100 6 -17 9 -44 20 -60 24 -29 7 -69 35 -132 94 -29
26 -34 37 -29 58 6 24 5 25 -23 19 -16 -3 -39 -2 -49 4 -17 9 -18 15 -9 50 9
33 8 47 -8 80 -10 23 -22 41 -27 41 -4 0 -8 6 -8 13 0 8 -6 27 -14 43 -8 16
-18 42 -22 59 l-7 30 36 -28 c20 -15 55 -34 78 -42 22 -8 52 -23 67 -33 15
-11 37 -24 49 -31 19 -10 22 -9 17 3 -6 17 -80 67 -162 111 -58 31 -112 81
-112 102 0 21 20 15 94 -28 67 -41 136 -65 136 -49 0 4 -12 11 -26 14 -56 14
-161 105 -195 169 -10 18 -5 18 106 -2 139 -25 277 12 475 129 41 25 87 50
101 56 33 15 93 11 115 -7 14 -11 64 -108 64 -123 0 -2 -37 -3 -82 -3 -98 1
-157 -7 -256 -34 -114 -30 -192 -77 -192 -113 0 -17 15 -15 86 9 29 10 62 14
83 10 24 -4 47 0 69 11 29 14 38 14 60 3 15 -7 41 -13 59 -15 17 -1 43 -10 58
-20 31 -20 86 -111 78 -130 -9 -23 17 -54 67 -79 90 -46 130 -91 155 -175 l7
-25 -26 24 c-14 14 -29 22 -32 19 -3 -4 -30 7 -61 23 -67 35 -125 38 -188 8
-56 -26 -51 -36 9 -19 137 38 242 -14 275 -136 6 -22 12 -67 14 -102 3 -54 0
-67 -21 -95 -42 -56 -70 -124 -65 -163 7 -65 98 -171 195 -227 51 -29 62 -42
53 -57 -3 -5 -26 5 -50 22 -35 25 -54 31 -95 31 -28 0 -55 -4 -61 -10 -8 -8 3
-11 37 -12 45 -1 115 -19 130 -33 3 -4 -14 -12 -37 -18 -24 -6 -72 -22 -106
-36 -60 -25 -83 -32 -113 -33 -8 -1 -31 -11 -50 -23 -19 -12 -39 -22 -45 -23
-5 -1 -17 -4 -25 -8 -18 -8 -115 77 -106 92 3 5 19 11 36 15 44 8 27 28 -17
21 -93 -14 -236 -106 -358 -229 -50 -50 -101 -108 -115 -128 -19 -30 -32 -38
-55 -38 -16 0 -47 -4 -67 -9 -44 -10 -46 -14 34 91 32 42 58 79 58 82 0 7 -35
-22 -115 -95 -71 -65 -78 -69 -160 -97 -84 -28 -150 -43 -221 -49 l-61 -5 -10
41 c-7 26 -7 43 -1 47 5 4 5 10 -1 18 -5 6 -12 25 -15 41 -3 17 -8 41 -11 55
-3 14 -7 50 -11 80 -3 30 -10 60 -15 65 -9 9 -5 -63 6 -105 2 -8 7 -37 11 -65
3 -27 8 -59 10 -70 12 -59 13 -67 29 -190 4 -27 8 -59 10 -70 1 -11 6 -38 10
-60 15 -95 39 -182 57 -207 20 -29 94 -62 124 -56 13 3 -3 15 -51 38 -38 19
-71 40 -72 46 -2 6 22 30 54 54 48 36 65 44 98 43 l40 -1 1 66 c1 77 18 123
64 176 72 82 223 120 268 69 23 -28 32 -29 27 -5 -9 51 99 159 151 149 18 -3
24 4 39 52 19 59 72 121 104 121 10 0 21 3 25 7 11 11 69 13 101 3 60 -19 78
-96 41 -168 -13 -25 -13 -30 -3 -26 19 7 35 39 51 99 11 47 15 50 56 62 62 18
138 22 149 9 7 -8 2 -26 -14 -54 -13 -23 -21 -42 -18 -42 3 0 43 32 89 71 122
102 166 114 252 70 71 -36 114 -108 115 -191 1 -120 -80 -254 -223 -369 -20
-17 -22 -20 -8 -21 34 0 8 -122 -43 -196 -38 -56 -114 -121 -150 -129 -29 -7
-64 9 -55 24 3 4 -6 27 -18 51 -29 58 -76 90 -130 89 l-41 -1 33 -11 c48 -18
100 -64 117 -103 19 -47 13 -155 -14 -221 -30 -77 -67 -132 -127 -188 -108
-104 -222 -136 -328 -93 -66 27 -80 25 -122 -11 -52 -46 -88 -61 -159 -68 -82
-7 -98 4 -91 61 4 35 3 38 -7 22 -29 -47 -102 -116 -144 -136 -95 -44 -204
-12 -219 65 -3 19 -9 35 -13 36 -52 6 -81 25 -81 55 0 6 -20 21 -44 33 -25 11
-48 26 -52 33 -14 22 -12 152 4 193 21 56 48 83 101 99 32 10 39 14 22 15 -37
2 -87 38 -105 76 -9 19 -21 35 -25 35 -10 0 4 -72 18 -99 7 -12 0 -23 -30 -44
l-38 -28 -15 53 c-9 29 -18 73 -21 98 -11 100 -15 169 -17 248 -1 87 -11 106
-23 45 -5 -26 -9 -33 -15 -23 -14 23 -17 11 -24 -100 -3 -58 -8 -114 -10 -126
-2 -12 -7 -45 -11 -75 -4 -30 -9 -58 -12 -62 -3 -5 -22 -6 -42 -2 -58 12 -88
13 -102 4 -8 -5 0 -10 24 -14 78 -15 116 -73 122 -189 5 -85 -10 -120 -60
-136 -19 -6 -35 -17 -35 -25 0 -23 -36 -58 -61 -60 -18 -1 -25 -9 -30 -35 -15
-72 -104 -110 -192 -81 -40 14 -131 97 -142 130 -10 33 -23 25 -22 -15 1 -46
-15 -56 -79 -50 -63 5 -119 33 -168 82 -34 34 -38 35 -54 21 -32 -29 -104 -49
-155 -43 -103 11 -237 113 -295 224 -49 94 -69 220 -46 287 17 50 40 74 99
101 48 23 47 29 -5 24 -58 -5 -94 -39 -121 -113 -19 -53 -31 -61 -72 -48 -34
12 -87 61 -126 118 -41 60 -70 175 -51 198 8 10 -3 28 -48 72 -147 144 -198
294 -143 417 47 107 162 151 244 95 17 -13 60 -47 95 -77 40 -35 62 -49 62
-39 0 9 -4 19 -10 22 -5 3 -10 19 -10 35 l0 28 56 -4 c31 -3 72 -11 90 -19 29
-12 35 -22 54 -84 19 -65 34 -90 46 -78 3 3 -2 19 -10 36 -35 66 -12 141 49
161 37 12 72 6 127 -21 48 -24 74 -59 88 -117 10 -45 14 -49 41 -49 45 0 101
-50 120 -109 9 -27 14 -56 12 -64 -3 -8 5 -1 17 17 29 43 78 51 151 23 107
-40 168 -124 177 -242 6 -81 -10 -96 -55 -54 -57 53 -52 25 6 -40 l35 -38 9
27 c18 55 78 41 162 -38 16 -14 33 -24 39 -22 23 7 59 118 71 217 2 14 5 39 8
55 3 17 8 46 11 65 23 159 18 173 -13 38 -31 -132 -69 -225 -108 -266 -19 -20
-66 -11 -79 16 -9 18 -7 39 12 105 12 45 25 96 28 114 4 18 11 45 17 60 6 15
10 29 9 31 -1 1 1 15 4 30 6 28 95 456 101 482 15 69 42 171 68 255 17 55 31
103 31 107 1 3 5 10 9 15 8 7 6 -68 -8 -277 -4 -53 -3 -81 3 -75 5 6 13 55 16
110 4 54 9 101 11 105 1 3 6 43 10 90 8 92 23 141 26 80 0 -19 2 -55 4 -80 2
-25 6 -99 8 -165 7 -155 18 -289 24 -295 5 -5 1 127 -11 470 -4 104 -3 136 4
115 6 -16 12 -44 14 -60 3 -17 7 -42 10 -55 3 -14 8 -41 11 -60 2 -19 7 -46
10 -60 2 -14 11 -70 19 -125 9 -55 18 -118 22 -140 8 -45 12 -80 13 -112 1
-13 6 -23 12 -23 5 0 8 3 6 8 -3 4 -8 60 -11 124 -4 64 -9 127 -11 140 -2 13
-6 52 -9 88 -6 66 -12 106 -22 150 -19 88 84 -152 113 -264 19 -72 36 -92 20
-23 -53 229 -136 454 -175 473 -20 10 -21 12 -7 18 26 10 102 7 127 -4 13 -6
38 -32 55 -57 25 -36 30 -50 22 -64 -8 -16 -6 -18 13 -16 33 3 34 -27 1 -43
-27 -13 -27 -14 -5 -18 12 -2 22 -8 22 -13 0 -17 29 -9 35 11 6 18 -13 60 -62
138 -22 34 -82 92 -97 92 -6 0 -5 4 3 9 17 11 71 -13 84 -35 4 -8 13 -14 18
-14 6 0 7 5 4 10 -3 6 -2 10 3 10 12 0 46 -39 66 -75 l16 -30 -6 30 c-8 33
-38 82 -68 106 -14 11 -16 18 -7 23 23 14 65 -49 100 -149 18 -54 34 -103 36
-109 2 -12 5 -18 38 -106 53 -141 151 -222 246 -205 44 8 139 44 147 56 14 23
-10 21 -59 -4 -68 -35 -98 -39 -152 -21 -81 28 -129 98 -197 288 -22 61 -46
129 -54 151 -19 52 -84 125 -112 125 -12 0 -22 5 -22 10 0 26 99 -4 128 -39
30 -37 71 -163 107 -331 15 -69 76 -150 136 -181 45 -23 107 -25 135 -4 17 13
14 14 -33 8 -80 -9 -125 19 -186 112 -24 38 -40 82 -51 150 -3 17 -10 46 -16
65 -14 47 -13 49 11 21 l20 -24 -3 43 c-3 57 -51 136 -106 175 -44 30 -71 34
-167 25 -16 -2 -36 -2 -44 1 -8 2 -26 -13 -41 -35 -37 -54 -52 -60 -95 -39
-34 16 -37 16 -67 -2 l-32 -18 -29 34 c-34 41 -64 95 -47 84 24 -15 4 19 -24
39 -54 41 -191 20 -211 -33 -5 -12 -3 -12 13 2 10 9 23 17 29 17 6 0 16 6 22
14 16 19 90 14 125 -9 34 -23 27 -30 -16 -16 -36 12 -78 11 -78 -1 0 -4 14 -9
30 -9 34 -2 37 -2 68 -13 28 -9 19 -26 -11 -20 -98 19 -129 9 -182 -60 -46
-60 -75 -173 -41 -160 11 4 11 -7 -1 -68 -37 -200 -89 -266 -213 -271 -48 -2
-52 -13 -9 -22 120 -27 207 83 243 310 20 122 62 221 104 244 9 5 33 11 52 14
30 4 32 3 16 -6 -45 -29 -65 -49 -82 -84 -10 -21 -19 -40 -19 -43 -6 -33 -100
-300 -118 -336 -59 -117 -155 -148 -249 -83 -29 21 -48 24 -48 8 0 -13 95 -56
139 -63 42 -6 101 17 131 51 21 25 83 137 87 158 5 34 77 265 92 301 12 26 31
49 50 58 45 24 45 20 -3 -27 -23 -24 -45 -53 -48 -65 -9 -32 5 -27 27 11 16
25 20 28 23 14 3 -13 7 -15 16 -8 6 5 24 15 40 21 l28 10 -30 -34 c-32 -37
-92 -153 -92 -179 0 -8 7 -17 15 -21 9 -3 15 0 15 8 0 9 7 12 20 9 27 -7 25
10 -2 22 -30 13 -30 41 -1 38 20 -2 22 1 17 27 -12 56 60 120 135 120 16 0 32
-4 35 -8 3 -5 -6 -44 -20 -88 -14 -43 -27 -86 -29 -94 -2 -8 -13 -51 -25 -95
-12 -44 -23 -89 -24 -100 -1 -11 -5 -27 -8 -35 -8 -21 -39 -122 -43 -140 -32
-149 -56 -269 -70 -350 -2 -12 -15 -77 -20 -100 -1 -3 -7 -24 -14 -48 l-12
-44 -52 6 c-57 6 -159 34 -222 60 -25 10 -81 58 -146 124 -115 116 -166 160
-216 186 -49 25 -40 13 22 -28 73 -48 119 -95 183 -186 l52 -74 -27 -26 c-31
-30 -43 -29 -43 2 0 42 -41 108 -79 127 -44 23 -75 52 -124 113 -25 31 -69 66
-131 103 -102 61 -150 79 -174 66 -11 -6 -6 -11 22 -21 l38 -12 -23 -24 c-25
-27 -20 -29 30 -14 l34 10 -34 -33 c-19 -18 -39 -41 -45 -52 -11 -19 -12 -18
-39 13 -36 43 -67 58 -145 72 -36 6 -88 22 -117 36 -28 13 -61 24 -72 24 -11
0 -23 4 -26 10 -8 13 60 40 101 40 19 0 34 5 34 10 0 6 -3 10 -7 11 -5 0 -19
2 -33 3 -35 4 -62 -7 -104 -44 -31 -27 -36 -29 -36 -13 0 20 11 31 81 81 66
47 140 152 146 206 4 35 -1 55 -33 116 -35 65 -39 82 -40 149 -1 42 5 89 12
107 7 17 11 34 9 36 -10 10 86 98 107 99 58 4 111 -2 138 -16 25 -13 30 -13
30 -1 0 21 -62 46 -117 46 -40 0 -62 -8 -114 -39 -58 -35 -64 -37 -67 -20 -6
33 46 108 96 140 84 52 90 59 97 102 13 85 46 127 111 143 16 4 39 13 50 21
16 10 28 11 49 3 16 -6 58 -13 94 -16 36 -3 79 -12 95 -20 36 -18 36 -18 36 4
0 46 -135 117 -265 138 -55 9 -153 9 -194 0 -33 -8 -34 -8 -27 20 18 70 82
134 134 134 13 0 73 -32 135 -72 136 -86 170 -102 269 -122 71 -15 112 -15
178 0 52 12 70 14 70 9 0 -4 -14 -27 -31 -53 -45 -66 -101 -112 -156 -127 -42
-12 -44 -13 -17 -14 34 -1 77 17 141 61 43 29 58 34 67 20 9 -15 -66 -87 -129
-125 -66 -40 -119 -86 -111 -95 3 -3 14 2 23 10 27 23 155 90 161 84 3 -3 -1
-18 -8 -33 -8 -16 -15 -35 -16 -44 0 -10 -11 -31 -24 -49 -24 -34 -33 -82 -20
-115 11 -30 -3 -49 -29 -40 -11 3 -21 11 -21 16 0 5 -5 9 -10 9 -7 0 -7 -6 0
-19 5 -11 10 -29 10 -41 0 -29 -83 -107 -147 -137 -29 -14 -56 -29 -58 -33 -6
-10 -66 -3 -129 16 -72 20 -98 18 -136 -16 -19 -16 -40 -29 -46 -30 -6 0 -19
-9 -29 -20 -21 -23 -9 -26 19 -5 23 18 39 10 28 -13 -17 -34 3 -102 29 -102 5
0 9 17 9 38 0 49 21 60 116 63 82 3 107 12 154 56 l35 32 98 -5 c58 -3 97 -1
97 4 0 15 -64 42 -89 37 -35 -7 -19 18 18 29 21 6 42 23 58 48 30 45 48 48 58
11 4 -19 2 -31 -9 -38 -13 -10 -9 -22 34 -91 28 -43 56 -87 62 -96 7 -9 10
-20 6 -23 -10 -10 -42 15 -66 51 -38 58 -43 28 -6 -34 42 -69 51 -79 86 -87
31 -8 39 3 59 85 17 69 15 62 21 80 17 42 26 80 21 80 -4 0 -14 -6 -22 -14
-21 -19 -39 -21 -83 -13 -33 7 -39 12 -49 49 -6 23 -21 57 -34 75 -26 39 -24
53 19 168 25 64 63 115 97 128 11 4 9 8 -6 20 -11 8 -23 13 -27 11 -15 -9 -8
51 8 74 15 21 54 31 54 13 0 -4 11 -6 24 -4 23 5 49 -14 92 -69 19 -24 54 -48
71 -48 4 0 -7 12 -25 26 -25 20 -30 29 -21 35 7 4 21 3 30 -2 10 -5 27 -9 38
-9 15 0 19 -4 14 -16 -5 -14 -2 -16 23 -10 31 8 51 22 43 31 -3 2 -23 7 -45
10 -78 11 -94 17 -108 37 -13 18 -13 24 1 45 16 23 15 24 -11 19 -14 -3 -26 0
-26 5 0 5 -11 7 -25 3 -59 -15 -74 57 -28 135 17 30 21 41 10 32 -25 -20 -30
-8 -13 33 19 46 109 142 144 153 15 5 49 8 76 7 40 -3 57 -10 97 -44 58 -48
68 -50 41 -8 -12 18 -35 37 -53 43 -18 6 -34 16 -36 22 -6 16 39 40 85 46 53
6 60 12 32 27 -14 8 -42 9 -79 5 -47 -5 -60 -3 -79 13 -28 25 -28 36 1 20 12
-7 25 -11 30 -10 4 1 7 -3 7 -9 0 -5 5 -7 12 -3 7 5 5 12 -8 22 -18 14 -18 14
1 7 41 -15 105 -17 136 -5 40 17 21 28 -34 20 -51 -7 -104 5 -137 31 l-25 19
70 -1 c39 0 106 -10 150 -22z m-247 -22 c-3 -3 -9 2 -12 12 -6 14 -5 15 5 6 7
-7 10 -15 7 -18z m-460 -41 c22 -35 22 -54 0 -54 -18 0 -37 33 -38 63 0 36 10
34 38 -9z m1666 -10 c-12 -35 -39 -53 -55 -37 -8 8 -4 20 17 47 32 40 54 34
38 -10z m-1599 16 c-13 -15 -22 -17 -29 -10 -12 12 8 30 33 30 11 0 10 -5 -4
-20z m1513 8 c7 -7 12 -18 12 -26 0 -10 -7 -9 -29 4 -17 10 -28 21 -25 26 7
12 28 10 42 -4z m-230 -226 c74 -91 189 -143 303 -138 79 4 113 14 188 54 221
119 326 161 365 146 21 -8 20 -23 -1 -20 -28 4 -102 -22 -172 -60 -36 -20 -68
-40 -71 -44 -11 -17 -137 -73 -202 -89 -179 -46 -357 23 -454 175 -19 29 -34
57 -34 61 1 8 14 -7 78 -85z m-1069 23 c-47 -94 -142 -165 -248 -185 -100 -19
-192 9 -325 97 -56 37 -103 71 -106 74 -3 4 -31 13 -63 20 -60 14 -73 36 -18
31 44 -5 101 -30 186 -82 163 -100 208 -117 296 -115 46 1 78 9 114 27 52 27
128 100 160 155 28 48 31 32 4 -22z m2321 24 c26 -48 68 -162 64 -172 -2 -7
-26 -20 -52 -30 -26 -11 -56 -23 -67 -28 -105 -46 -139 -59 -143 -54 -11 10
-54 122 -58 151 -5 30 -3 31 113 91 65 34 121 62 125 62 4 1 12 -8 18 -20z
m-3365 -50 c55 -29 101 -53 103 -54 2 -2 -4 -25 -13 -52 -9 -26 -18 -67 -19
-90 -1 -23 -4 -45 -7 -47 -5 -5 -236 88 -247 98 -5 5 70 196 77 196 3 0 51
-23 106 -51z m3495 -341 c26 -112 24 -119 -34 -134 -27 -7 -63 -15 -80 -18
-17 -4 -59 -11 -92 -18 l-61 -11 -34 31 c-26 24 -43 32 -72 32 -31 0 -39 4
-47 25 -17 45 4 61 145 105 71 23 155 50 185 60 30 9 59 14 64 9 5 -4 16 -40
26 -81z m-3495 9 l160 -52 -3 -30 c-4 -37 -2 -35 -51 -46 -26 -6 -52 -21 -70
-41 l-28 -31 -119 27 c-125 28 -150 38 -147 54 1 6 5 23 8 39 2 15 7 39 10 53
3 14 8 40 11 58 6 31 9 33 38 28 17 -3 103 -30 191 -59z m-105 -281 c25 -3 51
-5 58 -5 10 -1 11 -22 7 -93 -3 -51 -8 -94 -10 -96 -5 -5 -163 -1 -221 7 -11
1 -11 182 0 199 3 5 31 5 63 1 32 -4 78 -10 103 -13z m3641 -49 c0 -40 2 -81
4 -92 7 -37 -8 -45 -101 -51 -110 -6 -125 -6 -132 0 -3 3 -6 29 -8 57 -1 27
-4 52 -6 55 -3 2 -2 21 1 42 l6 37 75 10 c41 6 94 11 118 12 l42 2 1 -72z
m-1144 -111 c13 -14 30 -26 38 -26 25 0 29 -1 43 -12 14 -12 16 -32 2 -23 -5
3 -27 3 -47 -1 -29 -5 -56 -26 -118 -86 -73 -71 -105 -93 -105 -69 0 4 25 39
55 77 58 73 65 93 40 118 -16 15 -13 50 7 88 9 18 20 10 85 -66z m-1942 -129
c45 -13 48 -15 25 -22 -27 -9 -103 -7 -193 4 -13 2 4 22 27 32 24 10 69 6 141
-14z m2469 6 c10 -6 14 -13 9 -16 -26 -16 -183 -24 -205 -11 -19 12 88 43 137
40 22 -1 49 -7 59 -13z m-2966 -30 c26 -23 76 -138 69 -158 -4 -9 -20 -15 -39
-16 -35 -1 -47 -3 -148 -18 -47 -6 -68 -6 -76 2 -12 12 -25 88 -28 157 l-1 35
70 6 c124 10 132 9 153 -8z m3531 4 c51 -2 55 -11 41 -91 -5 -28 -11 -63 -14
-78 -6 -33 -15 -50 -24 -44 -8 4 -47 10 -137 21 -123 14 -136 17 -131 32 4 8
9 27 13 41 3 15 17 40 30 55 12 16 23 35 23 42 0 24 31 33 94 28 34 -2 81 -5
105 -6z m-3486 -298 c-10 -17 -47 -54 -83 -82 -36 -29 -70 -59 -77 -67 -8 -10
-15 -12 -21 -5 -11 12 -37 123 -31 130 5 5 195 52 217 54 10 1 8 -7 -5 -30z
m3324 0 c16 -6 29 -10 31 -9 10 5 91 -14 106 -25 17 -13 17 -16 1 -64 -15 -47
-29 -63 -37 -43 -1 5 -28 24 -58 44 -58 38 -120 95 -120 109 0 9 37 3 77 -12z
m-842 -639 c-5 -8 -11 -8 -17 -2 -6 6 -7 16 -3 22 5 8 11 8 17 2 6 -6 7 -16 3
-22z m-342 -111 c-31 -53 -37 -54 -100 -12 l-58 38 80 5 c44 3 83 4 88 2 4 -2
-1 -17 -10 -33z m-953 -18 c0 -10 -6 -34 -14 -52 -7 -19 -17 -43 -21 -54 -7
-18 -9 -17 -15 10 -13 53 -10 74 12 95 27 25 38 25 38 1z m818 -37 c34 -26 62
-54 62 -63 0 -9 7 -25 15 -35 22 -29 18 -41 -15 -43 -25 -2 -70 -26 -126 -68
-7 -5 -15 -7 -18 -5 -2 3 -13 54 -24 114 -18 106 -18 110 0 128 26 26 36 23
106 -28z m-437 -221 c-12 -20 -14 -14 -5 12 4 9 9 14 11 11 3 -2 0 -13 -6 -23z
m5 -144 c1 -61 -1 -108 -4 -104 -3 3 -6 55 -7 115 -1 60 1 107 4 104 3 -2 6
-54 7 -115z m5 -133 c0 -3 8 -26 19 -51 18 -42 24 -95 10 -95 -13 0 -45 97
-42 128 2 19 6 32 9 29 2 -3 4 -8 4 -11z"/>
<path d="M3734 4636 c-56 -18 -113 -42 -127 -52 -17 -12 -36 -46 -54 -94 -25
-71 -64 -150 -85 -177 -16 -20 -1 -63 22 -63 17 0 19 5 13 33 -6 29 -5 31 10
18 9 -7 17 -19 17 -26 0 -7 7 -18 15 -25 12 -10 15 -10 16 1 0 8 2 24 5 37 3
17 -3 27 -26 40 -16 9 -28 22 -27 27 4 11 53 8 79 -6 9 -5 19 -5 22 0 6 9 -36
31 -59 31 -24 0 -17 27 11 49 19 15 41 21 75 21 26 0 51 5 54 10 6 10 5 11
-45 15 -16 1 -35 3 -41 4 -5 0 -7 6 -3 12 6 11 36 9 107 -6 24 -5 37 4 108 76
53 53 72 78 57 74 -39 -12 -48 -20 -87 -71 -31 -41 -42 -49 -69 -49 -38 0 -46
16 -16 29 12 6 30 23 39 39 18 29 83 66 120 67 17 0 17 2 5 10 -21 14 -23 13
-136 -24z"/>
<path d="M1780 4195 c36 -44 120 -62 158 -32 23 18 12 25 -18 11 -30 -16 -88
-13 -99 4 -3 5 -17 15 -31 22 -24 13 -24 12 -10 -5z"/>
<path d="M2532 3861 c-10 -6 -5 -10 16 -14 43 -9 88 -51 123 -118 18 -32 39
-59 47 -59 13 0 13 2 0 18 -9 9 -25 35 -37 57 -27 52 -50 79 -92 104 -38 24
-39 24 -57 12z"/>
<path d="M3214 3838 c-26 -16 -56 -47 -72 -74 -15 -26 -38 -60 -50 -75 -13
-16 -20 -29 -15 -29 18 1 42 28 69 75 32 60 67 91 114 106 46 15 56 25 24 25
-15 0 -46 -13 -70 -28z"/>
<path d="M2500 3825 c-17 -20 -7 -29 18 -16 26 14 80 -16 102 -56 9 -17 24
-43 34 -58 23 -35 8 -54 -29 -37 -31 14 -141 16 -150 3 -3 -5 7 -9 23 -9 71 2
222 -68 252 -117 12 -19 24 -35 27 -35 7 0 -2 80 -12 103 -4 9 -13 17 -20 17
-20 0 -60 46 -93 107 -43 79 -124 132 -152 98z"/>
<path d="M3056 3709 c-11 -11 -15 -19 -10 -19 16 0 37 17 33 27 -2 6 -13 2
-23 -8z"/>
<path d="M2735 3700 c10 -11 23 -20 28 -20 6 0 2 9 -8 20 -10 11 -23 20 -28
20 -6 0 -2 -9 8 -20z"/>
<path d="M2049 3664 c-1 -5 -1 -12 0 -16 0 -5 -9 -8 -21 -8 -21 -1 -21 -2 -5
-11 11 -6 28 -7 43 -2 l26 9 -21 18 c-12 11 -22 15 -22 10z"/>
<path d="M2969 3636 c-15 -19 -25 -21 -78 -19 -34 1 -67 5 -72 9 -7 4 -9 -1
-7 -12 3 -14 11 -18 33 -17 17 1 37 2 45 3 8 0 29 -2 46 -6 35 -7 58 13 52 45
-3 18 -4 18 -19 -3z"/>
<path d="M3810 3650 c-18 -11 -11 -18 27 -26 22 -4 32 -2 36 10 4 10 1 13 -9
9 -7 -3 -14 0 -14 6 0 13 -20 14 -40 1z"/>
<path d="M1732 3621 c-25 -15 8 -122 59 -190 22 -28 39 -54 39 -56 0 -3 -13 1
-30 10 -38 20 -38 9 1 -32 34 -37 28 -39 -56 -18 -98 26 -154 83 -157 160 -1
19 -5 35 -9 35 -12 0 -19 -51 -15 -113 4 -67 32 -104 101 -138 40 -20 40 -20
15 0 -52 41 -68 58 -89 94 -11 20 -19 37 -17 37 2 0 24 -16 48 -37 87 -73 207
-108 285 -83 65 21 88 53 60 82 -31 31 -67 86 -67 101 0 23 42 51 52 34 5 -8
8 -5 8 10 0 23 -46 66 -62 57 -25 -16 -42 -101 -27 -140 11 -30 1 -36 -31 -19
-42 22 -63 63 -66 129 -3 61 -19 91 -42 77z"/>
<path d="M2535 3621 c2 -5 17 -12 32 -16 16 -3 54 -24 86 -46 54 -37 87 -49
87 -31 0 4 -17 16 -37 27 -21 11 -41 24 -45 30 -4 5 -8 6 -8 2 0 -5 -12 -1
-27 7 -37 20 -95 37 -88 27z"/>
<path d="M3330 3626 c0 -2 7 -6 15 -10 8 -3 15 -1 15 4 0 6 -7 10 -15 10 -8 0
-15 -2 -15 -4z"/>
<path d="M4168 3613 c-10 -12 -14 -32 -12 -57 5 -59 -21 -111 -80 -156 -17
-14 -18 -13 -12 7 6 18 4 21 -16 16 -19 -5 -21 -3 -10 8 30 33 2 139 -37 139
-16 0 -61 -39 -61 -52 0 -4 12 -8 26 -10 15 -2 33 -12 40 -24 15 -22 16 -21
-58 -100 -18 -19 -26 -37 -22 -47 10 -28 84 -55 149 -55 54 0 172 30 185 46 3
4 18 14 34 22 36 19 96 77 97 96 1 8 2 20 3 27 4 23 -16 67 -29 67 -10 0 -12
-8 -6 -27 11 -43 3 -68 -35 -107 -35 -36 -81 -62 -124 -70 -14 -2 -42 -7 -62
-11 -45 -8 -47 -3 -13 31 34 34 32 48 -5 29 -40 -21 -38 -7 5 35 30 29 64 84
71 115 2 6 7 24 12 41 7 22 7 35 -1 43 -15 15 -21 14 -39 -6z"/>
<path d="M3074 3536 c-10 -8 -16 -17 -12 -21 7 -7 48 16 48 27 0 12 -14 9 -36
-6z"/>
<path d="M3180 3500 c8 -5 26 -9 40 -9 23 0 23 1 5 9 -11 5 -29 9 -40 9 -17 1
-17 -1 -5 -9z"/>
<path d="M3265 3479 c-11 -16 1 -22 30 -15 14 4 23 11 20 16 -8 13 -42 13 -50
-1z"/>
<path d="M3010 3432 c0 -4 10 -13 23 -21 22 -14 22 -14 3 8 -20 22 -26 25 -26
13z"/>
<path d="M4380 3401 c0 -5 -21 -32 -47 -61 -42 -47 -44 -51 -18 -37 17 8 38
23 47 33 17 20 35 74 24 74 -3 0 -6 -4 -6 -9z"/>
<path d="M3760 3392 c0 -5 4 -12 8 -17 5 -6 19 -42 31 -81 26 -82 66 -136 122
-164 50 -26 67 -26 44 0 -20 22 -12 25 32 10 24 -9 40 -7 79 8 26 11 50 24 52
31 3 8 -3 8 -21 2 -29 -11 -110 -7 -149 8 -15 6 -34 8 -40 6 -14 -6 -59 57
-101 141 -23 45 -57 78 -57 56z"/>
<path d="M2053 3298 c-28 -53 -55 -93 -63 -93 -8 0 -25 -6 -38 -13 -30 -17
-103 -23 -142 -12 -37 11 -31 -4 11 -25 37 -19 88 -22 118 -6 21 12 22 11 11
-9 -16 -30 -6 -36 27 -15 60 39 88 85 126 208 24 79 2 63 -50 -35z"/>
<path d="M2744 3356 c-9 -23 12 -52 51 -70 19 -9 35 -22 35 -28 0 -6 3 -8 7
-5 3 4 -1 15 -9 24 -9 10 -19 28 -22 40 -4 11 -18 29 -32 37 -21 14 -25 15
-30 2z"/>
<path d="M3010 3341 c-17 -16 -30 -36 -30 -44 0 -17 -95 -61 -113 -52 -7 4 -3
-1 7 -9 18 -15 23 -14 55 5 20 12 51 30 70 41 43 24 61 43 61 62 0 28 -20 27
-50 -3z"/>
<path d="M3111 3280 c-32 -14 -83 -51 -77 -57 2 -2 14 1 27 7 19 11 21 10 16
-4 -7 -19 1 -20 38 -6 45 17 101 14 144 -7 49 -24 55 -15 7 11 -40 21 -102 29
-145 16 -33 -9 -41 0 -16 20 15 13 91 18 131 9 12 -3 34 -13 49 -23 19 -13 26
-14 23 -4 -11 34 -144 60 -197 38z"/>
<path d="M1491 3217 c-45 -23 -35 -34 31 -32 35 1 94 -6 133 -16 109 -28 102
-6 -10 30 -82 27 -126 32 -154 18z"/>
<path d="M4390 3223 c-53 -9 -220 -65 -220 -75 0 -6 8 -7 18 -3 52 21 189 43
252 40 33 -1 63 2 66 6 11 19 -66 40 -116 32z"/>
<path d="M4190 3210 c-9 -6 -10 -10 -3 -10 6 0 15 5 18 10 8 12 4 12 -15 0z"/>
<path d="M2481 3150 c-12 -22 -20 -40 -17 -40 7 0 49 71 44 75 -2 3 -15 -13
-27 -35z"/>
<path d="M3332 3175 c13 -33 32 -65 40 -65 12 0 11 3 -18 41 -15 19 -24 30
-22 24z"/>
<path d="M2033 2967 c-34 -15 -28 -23 15 -19 46 4 74 -19 126 -106 60 -99 122
-135 160 -93 16 18 15 19 -23 19 -45 1 -69 20 -141 116 -58 76 -98 101 -137
83z"/>
<path d="M3793 2960 c-21 -9 -56 -39 -78 -65 -66 -81 -104 -114 -142 -124 -20
-6 -40 -8 -44 -5 -4 2 -10 0 -13 -5 -8 -13 49 -34 73 -26 34 10 77 51 112 108
56 88 75 102 135 102 38 0 50 3 43 11 -17 21 -46 22 -86 4z"/>
<path d="M3210 2960 c0 -8 5 -22 10 -30 9 -13 10 -13 10 0 0 8 -5 22 -10 30
-9 13 -10 13 -10 0z"/>
<path d="M2575 2874 c-4 -16 -10 -39 -15 -51 -5 -13 -6 -23 -1 -23 10 0 36 88
28 96 -3 4 -9 -7 -12 -22z"/>
<path d="M3230 2889 c0 -8 5 -20 12 -27 7 -7 9 -12 5 -12 -9 0 51 -137 80
-182 39 -58 39 -45 0 25 -19 34 -45 91 -57 127 -24 68 -40 95 -40 69z"/>
<path d="M1778 2874 c-32 -17 -33 -18 -14 -37 27 -27 24 -65 -9 -101 -30 -33
-13 -35 20 -1 25 24 28 33 29 90 1 28 4 30 41 31 60 1 86 -6 83 -23 -2 -11 7
-17 30 -19 38 -5 98 -34 129 -63 26 -25 41 -28 22 -4 -8 9 -13 18 -11 20 5 6
-26 58 -46 76 -22 20 -44 24 -85 14 -23 -6 -27 -5 -25 9 3 14 -8 17 -67 20
-47 2 -79 -2 -97 -12z"/>
<path d="M3972 2882 c-20 -3 -21 -6 -10 -19 12 -15 10 -15 -17 -8 -74 20 -117
-1 -156 -77 -16 -32 -17 -38 -4 -38 8 0 15 4 15 8 0 14 101 60 147 67 24 4 41
12 40 18 -3 15 83 32 118 23 22 -6 25 -9 15 -22 -17 -19 11 -93 41 -112 30
-19 32 -10 3 23 -26 30 -25 55 3 86 12 15 12 19 -2 33 -9 9 -22 17 -28 17 -25
4 -143 4 -165 1z"/>
<path d="M2534 2751 c-9 -23 -25 -58 -35 -78 -10 -20 -17 -38 -15 -41 3 -2 21
31 41 73 20 42 35 79 31 82 -3 3 -13 -13 -22 -36z"/>
<path d="M1918 2668 c-16 -6 -28 -13 -28 -17 0 -4 12 -8 28 -9 56 -5 105 -23
130 -49 16 -16 16 -16 -1 -10 -48 18 -98 19 -152 2 -30 -10 -57 -21 -60 -24
-2 -4 22 -7 53 -7 169 -2 238 -39 387 -210 102 -117 180 -188 242 -222 83 -44
90 -40 18 7 -33 22 -82 63 -110 92 -38 39 -42 47 -18 31 32 -22 53 -28 53 -14
0 4 -29 32 -64 62 -36 30 -98 90 -138 134 -142 152 -185 194 -219 211 -48 26
-90 33 -121 23z"/>
<path d="M3850 2643 c-34 -17 -92 -64 -151 -123 -103 -102 -113 -111 -234
-209 -104 -84 -110 -91 -93 -91 7 0 24 7 36 16 37 26 39 6 2 -24 -72 -60 -84
-72 -72 -72 28 0 103 60 236 190 78 75 162 149 188 163 66 37 147 58 229 61
38 2 72 6 75 9 8 7 -98 37 -134 37 -16 0 -43 -5 -60 -11 -52 -18 -61 -4 -12
18 56 26 108 40 138 38 25 -2 30 10 6 19 -37 14 -102 5 -154 -21z"/>
<path d="M3125 2521 c3 -11 8 -37 10 -58 2 -21 5 -40 6 -43 1 -3 1 -8 0 -12 0
-5 4 -8 10 -8 13 0 7 69 -10 113 -12 30 -26 38 -16 8z"/>
<path d="M3940 2353 c-22 -9 -145 -103 -134 -103 5 0 41 23 79 51 88 64 89 65
55 52z"/>
<path d="M3260 2110 c-8 -5 -12 -11 -9 -14 3 -3 14 1 25 9 21 16 8 20 -16 5z"/>
<path d="M3059 2043 c-5 -39 -5 -63 1 -63 4 0 7 16 7 35 0 31 -5 48 -8 28z"/>
<path d="M3054 1795 c1 -85 5 -155 9 -155 4 0 7 70 6 155 0 85 -4 155 -8 155
-4 0 -7 -70 -7 -155z"/>
<path d="M3055 1594 c2 -11 4 -34 4 -51 1 -18 4 -33 9 -33 10 0 3 82 -8 94 -5
5 -7 0 -5 -10z"/>
<path d="M2313 1046 c4 -10 7 -22 7 -27 0 -5 4 -9 9 -9 12 0 2 38 -12 47 -7 4
-8 0 -4 -11z"/>
<path d="M1260 4994 c-162 -156 -204 -208 -196 -238 12 -46 35 -40 95 26 71
80 171 180 240 239 49 43 52 48 39 68 -25 40 -52 26 -178 -95z"/>
<path d="M4605 5082 c-39 -28 -37 -39 16 -89 110 -102 179 -174 277 -290 23
-27 26 -28 46 -7 26 26 19 48 -36 110 -73 82 -275 284 -285 284 -4 0 -12 -4
-18 -8z"/>
<path d="M578 4773 c-47 -57 -188 -312 -188 -342 0 -11 11 -28 25 -37 24 -16
27 -16 40 2 7 10 26 45 41 77 l28 57 98 -102 c54 -57 101 -114 105 -127 3 -13
-1 -38 -11 -57 -21 -45 -20 -61 3 -74 31 -16 36 -13 61 43 32 71 91 174 162
285 63 96 65 113 18 125 -14 4 -29 -11 -67 -69 -53 -80 -62 -88 -97 -75 -12 5
-36 12 -52 15 -16 2 -70 15 -121 28 l-92 23 64 100 c67 104 75 125 50 125 -8
0 -15 5 -15 10 0 16 -36 11 -52 -7z"/>
<path d="M5388 4734 c-16 -8 -28 -19 -28 -24 0 -5 18 -39 41 -76 22 -36 39
-68 37 -69 -10 -10 -282 -72 -298 -68 -11 3 -22 13 -25 23 -3 10 -15 30 -26
44 -19 25 -22 25 -50 11 -30 -16 -36 -29 -19 -40 22 -14 210 -350 232 -416 5
-15 58 11 58 28 0 8 -16 48 -35 90 -19 41 -32 80 -28 87 4 6 23 29 44 51 108
116 139 151 139 158 0 4 6 7 14 7 8 0 31 -35 52 -77 21 -43 42 -79 46 -81 4
-2 8 -12 8 -23 0 -11 6 -22 14 -25 16 -6 66 23 66 38 0 29 -193 379 -209 378
-3 -1 -18 -8 -33 -16z"/>
<path d="M236 4058 c-18 -29 -50 -139 -82 -277 -26 -114 -23 -128 25 -133 22
-3 26 3 39 57 23 100 63 247 82 302 12 37 14 55 7 62 -18 18 -56 12 -71 -11z"/>
<path d="M5720 4053 c-8 -2 -20 -6 -27 -8 -9 -3 -7 -22 8 -72 11 -37 22 -75
24 -83 1 -8 12 -51 23 -95 22 -89 37 -166 34 -177 -3 -12 36 -10 60 3 16 8 19
17 14 42 -3 18 -8 49 -12 70 -8 57 -50 216 -71 271 -18 50 -27 58 -53 49z"/>
<path d="M607 3981 c-30 -76 -92 -310 -101 -384 -2 -20 -7 -40 -10 -45 -8 -14
8 -30 37 -37 17 -5 27 -3 28 4 1 6 2 14 3 19 1 4 6 27 10 52 13 76 55 236 85
326 20 58 25 87 17 89 -50 15 -55 13 -69 -24z"/>
<path d="M5328 3983 c-10 -2 -18 -5 -18 -6 0 -1 12 -38 26 -82 33 -104 72
-265 90 -377 6 -32 10 -37 31 -36 41 4 45 19 28 103 -9 42 -18 89 -20 103 -6
45 -75 275 -87 289 -11 13 -19 14 -50 6z"/>
<path d="M483 3354 c-7 -3 -13 -20 -13 -37 0 -18 -3 -48 -6 -68 l-6 -36 -132
-41 c-73 -23 -139 -42 -148 -42 -13 0 -15 15 -14 91 0 51 -3 94 -9 97 -14 9
-59 2 -67 -11 -12 -19 -7 -394 5 -410 7 -9 25 -17 42 -19 l29 -3 -2 80 c-2 44
-5 93 -6 109 -2 15 2 30 9 32 12 5 258 -68 282 -84 6 -4 15 -39 18 -77 8 -78
15 -93 47 -91 21 1 21 2 21 256 0 243 -1 255 -19 257 -10 1 -25 -1 -31 -3z"/>
<path d="M5455 3100 l0 -260 22 0 c28 0 39 22 42 85 3 79 5 89 18 98 11 6 57
22 251 82 l44 14 -4 -115 c-4 -102 -3 -116 13 -125 22 -11 45 -3 55 19 10 24
13 383 3 409 -6 17 -14 22 -31 19 -13 -3 -28 -5 -34 -5 -8 -1 -10 -29 -7 -91
2 -53 0 -90 -5 -90 -17 0 -277 82 -288 91 -5 4 -11 27 -12 51 -4 66 -10 78
-40 78 l-27 0 0 -260z"/>
<path d="M5420 2658 c-7 -35 -14 -74 -16 -88 -8 -42 -55 -211 -75 -270 -26
-73 -25 -90 5 -90 13 0 28 6 33 13 24 29 101 310 118 429 6 40 4 48 -13 57
-34 18 -39 13 -52 -51z"/>
<path d="M533 2667 c-29 -13 -30 -44 -3 -157 26 -108 89 -304 104 -325 9 -13
17 -14 38 -6 l26 10 -29 82 c-39 110 -67 213 -89 329 -7 36 -15 68 -19 71 -3
4 -16 2 -28 -4z"/>
<path d="M5775 2538 c-5 -29 -10 -60 -11 -68 -4 -19 -47 -178 -70 -253 -9 -31
-15 -60 -12 -63 3 -2 19 -6 36 -8 30 -4 30 -3 56 78 50 161 88 338 75 350 -2
2 -18 7 -35 10 -31 7 -31 7 -39 -46z"/>
<path d="M158 2530 c-10 -7 -15 -19 -13 -33 19 -99 27 -135 35 -157 4 -14 23
-73 40 -131 29 -93 35 -106 54 -104 12 1 27 3 35 4 16 1 15 6 -25 141 -9 30
-27 102 -41 160 -14 58 -27 111 -29 118 -4 14 -32 15 -56 2z"/>
<path d="M5192 1972 c-28 -59 -84 -157 -122 -219 -39 -61 -70 -116 -70 -121 0
-5 10 -12 23 -16 22 -6 27 -2 85 73 25 33 31 33 147 6 39 -9 77 -18 85 -20 40
-8 100 -26 100 -30 0 -3 -23 -42 -51 -87 l-51 -81 23 -18 c12 -9 28 -15 35
-12 15 5 48 57 126 193 97 171 102 192 56 209 -21 8 -27 1 -69 -81 -26 -49
-49 -91 -52 -94 -2 -3 -27 19 -53 47 -27 29 -73 78 -101 108 -29 31 -55 64
-58 73 -3 9 8 45 26 79 l31 63 -22 18 c-12 10 -25 18 -29 18 -3 -1 -30 -49
-59 -108z"/>
<path d="M710 2045 c-10 -12 -8 -26 14 -74 14 -32 26 -63 26 -68 0 -6 -29 -41
-64 -79 -35 -38 -82 -89 -104 -114 -27 -29 -44 -41 -50 -35 -6 6 -26 43 -47
83 -20 39 -41 74 -46 77 -14 10 -49 -14 -49 -34 0 -10 7 -33 17 -52 42 -88
169 -298 187 -311 5 -3 22 0 38 8 l28 14 -51 83 c-29 45 -56 87 -60 93 -7 8
35 22 139 48 82 20 155 36 163 36 8 0 30 -25 49 -55 19 -30 41 -57 48 -60 20
-7 54 14 45 28 -4 7 -35 57 -70 112 -35 55 -89 148 -119 208 -30 59 -61 107
-68 107 -8 0 -19 -7 -26 -15z"/>
<path d="M4875 1483 c-21 -27 -101 -110 -177 -186 -120 -120 -136 -140 -124
-153 8 -8 22 -14 31 -14 17 0 266 244 322 316 30 38 31 42 17 62 -8 12 -19 22
-23 22 -5 0 -26 -21 -46 -47z"/>
<path d="M1082 1478 c-7 -7 -12 -21 -12 -31 0 -20 270 -297 323 -332 28 -18
29 -18 48 1 19 20 19 20 -39 72 -73 64 -171 160 -236 233 -58 64 -69 72 -84
57z"/>
<path d="M5127 1202 c-15 -20 -83 -93 -152 -161 -118 -118 -124 -126 -108
-143 9 -10 23 -18 33 -18 9 0 69 53 133 118 134 135 167 172 167 189 0 13 -30
53 -40 53 -3 0 -17 -17 -33 -38z"/>
<path d="M836 1169 l-18 -31 38 -41 c68 -73 218 -218 245 -237 26 -19 26 -19
49 5 l23 25 -49 42 c-26 24 -98 94 -159 156 l-110 113 -19 -32z"/>
<path d="M4385 1034 c-66 -50 -206 -134 -303 -183 -55 -28 -61 -34 -52 -51 16
-30 22 -30 85 0 l60 29 40 -38 c22 -21 76 -72 119 -113 l79 -75 -74 -41 c-111
-61 -103 -53 -88 -85 15 -34 22 -32 154 42 157 89 235 143 235 161 0 9 -6 24
-13 34 -12 17 -20 14 -107 -43 -51 -34 -94 -60 -96 -58 -2 1 -13 45 -24 97
-12 52 -24 104 -26 115 -6 25 -15 66 -16 74 -3 28 10 46 62 83 33 23 60 46 60
51 0 13 -20 47 -28 46 -4 0 -34 -21 -67 -45z"/>
<path d="M1548 1034 c-11 -23 -10 -28 9 -43 102 -78 98 -70 78 -151 -4 -14
-11 -43 -15 -65 -17 -78 -39 -167 -42 -170 -2 -2 -41 20 -88 50 -87 55 -102
57 -113 14 -5 -17 9 -30 76 -74 100 -64 268 -155 289 -155 8 0 20 11 26 25 13
28 18 23 -78 73 -113 60 -112 47 -7 147 50 48 104 99 119 112 l27 25 64 -31
c35 -17 68 -31 73 -31 9 0 38 40 32 44 -2 2 -56 31 -121 65 -66 34 -164 91
-218 126 l-100 65 -11 -26z"/>
<path d="M3875 762 c-21 -20 -318 -107 -429 -126 -36 -6 -39 -10 -31 -35 8
-26 30 -30 85 -15 25 7 59 15 75 17 36 6 255 73 301 92 19 8 34 20 34 28 0 22
-24 49 -35 39z"/>
<path d="M2107 739 c-3 -12 -4 -26 -1 -33 7 -17 198 -78 349 -111 11 -3 42
-10 69 -16 44 -11 51 -10 63 7 19 26 16 44 -7 44 -10 0 -59 9 -107 21 -48 11
-95 22 -103 24 -8 2 -58 17 -110 34 -52 17 -99 31 -105 32 -5 0 -17 5 -26 10
-13 6 -18 3 -22 -12z"/>
<path d="M2737 590 c-8 -32 9 -42 79 -47 38 -2 74 -9 81 -16 20 -21 102 -301
90 -309 -6 -3 -31 -5 -56 -3 -53 4 -130 7 -148 6 -7 -1 -13 -14 -13 -30 0 -16
6 -31 13 -33 41 -15 373 -15 415 0 6 2 12 18 12 34 l0 30 -90 -4 c-50 -3 -93
-2 -95 2 -2 4 5 35 16 71 11 35 22 71 24 79 46 173 41 166 128 172 26 1 42 8
48 21 16 29 4 47 -28 40 -36 -7 -376 -7 -430 0 -34 4 -42 2 -46 -13z"/>
<path d="M2038 355 c-15 -33 0 -49 60 -65 26 -7 52 -16 57 -19 6 -3 15 -6 20
-7 6 -1 39 -10 75 -19 36 -9 76 -19 89 -22 14 -2 28 -6 32 -8 4 -3 22 -7 42
-10 32 -5 36 -3 46 25 8 23 7 32 -2 34 -7 2 -70 18 -141 36 -71 18 -160 43
-198 56 l-69 23 -11 -24z"/>
<path d="M3880 359 c-54 -19 -230 -69 -260 -73 -57 -9 -80 -19 -80 -36 0 -10
7 -25 15 -33 13 -13 26 -12 112 9 118 30 284 82 299 95 16 13 5 59 -15 58 -9
0 -41 -9 -71 -20z"/>
</g>
</svg>
